<!DOCTYPE svg PUBLIC "-//W3C//DTD SVG 20010904//EN" "http://www.w3.org/TR/2001/REC-SVG-20010904/DTD/svg10.dtd">
<svg version="1.0" xmlns="http://www.w3.org/2000/svg" width="512px" height="512px" viewBox="0 0 5120 5120" preserveAspectRatio="xMidYMid meet">
<g id="layer101" fill="#000000" stroke="none">
<path d="M3261 5054 c-11 -31 -21 -62 -21 -70 0 -8 -4 -14 -9 -14 -5 0 -30 -64 -56 -142 -26 -79 -51 -145 -55 -148 -4 -3 -27 -64 -51 -136 l-44 -131 -126 5 c-177 7 -309 -27 -392 -100 -23 -21 -45 -38 -49 -38 -13 0 -35 -53 -48 -117 -18 -89 -8 -270 19 -353 12 -35 25 -67 29 -70 15 -10 52 -68 52 -80 0 -10 -25 -11 -108 -6 l-108 7 -23 -91 c-13 -49 -28 -90 -32 -90 -17 0 -9 -29 14 -52 12 -13 41 -45 64 -71 l41 -47 -126 5 c-70 3 -175 7 -234 10 -94 4 -116 1 -185 -20 -43 -14 -94 -30 -114 -35 -24 -7 -47 -24 -65 -47 -16 -21 -37 -46 -47 -56 -34 -34 -57 -119 -57 -210 0 -112 22 -172 88 -238 66 -66 122 -95 197 -103 137 -15 222 -34 229 -52 2 -6 -13 -26 -34 -43 -22 -17 -46 -46 -55 -64 -8 -17 -26 -44 -38 -59 -37 -43 -61 -160 -54 -266 3 -48 9 -99 13 -115 6 -24 4 -27 -21 -27 -35 0 -105 21 -105 31 0 4 -16 13 -35 19 -47 15 -156 -1 -185 -28 -12 -11 -42 -30 -67 -43 -26 -13 -59 -36 -74 -51 -14 -15 -45 -34 -67 -43 -21 -9 -49 -26 -60 -38 -33 -35 -49 -46 -74 -51 -50 -9 -78 -27 -147 -93 -53 -52 -71 -76 -71 -96 0 -17 5 -27 15 -27 8 0 15 -4 15 -10 0 -5 -7 -10 -15 -10 -18 0 -19 -12 -3 -28 9 -9 8 -16 -4 -29 -19 -22 -27 -67 -37 -206 -5 -77 -12 -109 -24 -122 -9 -9 -17 -23 -17 -32 0 -8 -8 -27 -18 -41 -11 -15 -29 -48 -42 -74 -13 -27 -27 -48 -32 -48 -13 0 -9 -38 5 -43 9 -4 9 -8 -2 -15 -17 -12 -19 -74 -3 -80 7 -2 12 -9 12 -16 0 -8 10 -26 22 -41 21 -27 23 -27 110 -23 48 2 88 1 88 -3 0 -4 -4 -9 -8 -11 -4 -2 -23 -43 -41 -93 -19 -49 -43 -99 -55 -110 -12 -11 -34 -38 -50 -58 -15 -21 -44 -54 -63 -73 -19 -20 -33 -37 -32 -38 2 -2 49 -19 104 -39 64 -24 102 -33 106 -26 3 6 9 43 12 81 3 39 10 74 15 77 5 3 14 71 21 151 7 80 14 147 16 148 2 2 12 -6 22 -17 9 -12 27 -21 40 -21 12 0 28 -7 37 -15 19 -19 149 -21 173 -3 43 35 84 82 89 106 3 15 13 46 20 70 11 33 14 100 12 288 -2 170 1 247 9 252 6 4 19 25 29 47 l19 40 164 2 163 3 28 -30 c16 -17 33 -30 39 -30 6 0 11 -7 11 -15 0 -8 -4 -15 -9 -15 -5 0 -13 -17 -19 -37 -17 -64 -86 -258 -93 -263 -4 -3 -28 -68 -54 -145 -25 -77 -50 -142 -54 -145 -4 -3 -29 -70 -55 -150 -27 -80 -52 -147 -56 -150 -4 -3 -29 -70 -56 -150 -26 -80 -51 -147 -55 -150 -16 -12 -59 -161 -53 -185 6 -24 9 -25 80 -25 67 0 74 2 74 20 0 11 4 20 9 20 8 0 35 81 88 255 9 33 21 63 26 66 5 3 28 70 52 149 24 79 47 146 52 149 5 3 17 33 26 66 41 135 79 250 86 255 4 3 29 76 55 162 54 175 56 176 120 133 20 -14 41 -25 47 -25 5 0 12 -7 15 -15 10 -25 69 -55 110 -55 59 -1 117 -17 131 -37 31 -46 33 -46 126 -40 53 4 93 11 98 18 9 16 85 28 179 28 95 1 245 49 295 94 11 10 32 25 46 32 15 8 42 38 60 67 19 29 37 55 41 56 5 2 8 14 8 27 0 39 11 55 46 70 19 8 59 41 91 74 31 34 62 61 69 61 6 0 30 19 53 43 78 80 234 95 328 31 20 -13 44 -24 54 -24 9 0 19 -3 21 -7 2 -5 32 -23 68 -40 82 -41 123 -65 132 -78 4 -5 33 -9 65 -10 54 0 61 3 93 36 60 61 80 88 80 109 0 31 -21 24 -61 -20 -33 -36 -41 -40 -86 -40 -28 0 -65 5 -84 11 -38 13 -99 71 -99 94 0 10 -10 15 -30 15 -20 0 -39 9 -54 25 -23 25 -107 76 -158 96 -16 6 -28 14 -28 19 0 4 -13 13 -30 20 -24 10 -43 10 -95 0 -36 -7 -65 -16 -65 -20 0 -4 -11 -11 -25 -14 -13 -3 -29 -15 -35 -26 -10 -18 -21 -20 -130 -20 -108 0 -122 -2 -137 -20 -10 -11 -25 -20 -35 -20 -10 0 -18 -4 -18 -10 0 -5 -15 -10 -34 -10 -27 0 -35 -5 -40 -24 -3 -13 -21 -34 -40 -46 -19 -11 -36 -24 -38 -28 -6 -15 -104 -69 -153 -85 -38 -13 -82 -17 -179 -15 -125 1 -129 2 -169 32 l-42 30 50 15 c28 8 52 18 55 21 11 12 90 60 99 60 5 0 30 26 57 57 27 32 54 63 61 68 19 17 60 126 73 198 15 83 7 177 -25 272 -13 38 -21 72 -19 75 3 2 148 6 322 8 299 3 372 9 372 33 0 4 18 13 39 19 29 8 46 20 63 48 21 33 23 48 22 152 -2 145 -23 211 -87 263 -23 18 -53 40 -67 47 -14 7 -27 16 -30 19 -14 18 -207 101 -234 101 -9 0 -16 4 -16 9 0 5 -12 14 -27 20 -26 10 -26 11 -3 7 14 -3 49 -8 78 -12 28 -3 52 -12 52 -18 0 -6 5 -4 10 4 5 8 10 45 10 83 0 38 4 67 10 67 6 0 10 7 10 15 0 19 -105 122 -132 131 -22 7 -14 24 12 24 10 0 20 4 22 8 2 5 36 26 75 47 62 32 76 44 95 84 13 25 26 48 29 51 11 10 29 124 29 185 0 68 -18 175 -30 175 -4 0 -10 13 -13 29 -12 59 -61 143 -124 211 -36 38 -71 70 -78 70 -7 0 -23 11 -37 25 -13 13 -46 33 -72 45 -30 12 -46 25 -42 33 2 6 10 31 17 55 6 23 15 42 19 42 4 0 11 12 14 28 12 51 89 287 96 292 7 6 90 262 90 279 0 6 -8 11 -19 11 -13 0 -24 -16 -40 -56z"/>
</g>
<g id="layer102" fill="#5e490a" stroke="none">
</g>
<g id="layer103" fill="#4b7355" stroke="none">
<path d="M2700 4407 c-91 -24 -150 -51 -192 -89 -24 -21 -46 -38 -50 -38 -13 0 -35 -53 -48 -117 -18 -89 -8 -270 19 -353 12 -35 25 -67 29 -70 15 -10 52 -68 52 -80 0 -10 -25 -11 -108 -6 l-108 7 -23 -91 c-13 -49 -28 -90 -32 -90 -17 0 -9 -29 14 -52 12 -13 41 -45 64 -71 l41 -47 -126 5 c-70 3 -175 7 -234 10 -94 4 -116 1 -185 -20 -43 -14 -94 -30 -114 -35 -24 -7 -47 -24 -65 -47 -16 -21 -37 -46 -47 -56 -34 -34 -57 -119 -57 -210 0 -112 22 -172 88 -238 66 -66 122 -95 197 -103 137 -15 222 -34 229 -52 2 -6 -13 -26 -34 -43 -22 -17 -46 -46 -55 -64 -8 -17 -26 -44 -38 -59 -37 -43 -61 -160 -54 -266 3 -48 9 -99 13 -115 6 -24 4 -27 -21 -27 -35 0 -105 21 -105 31 0 4 -16 13 -35 19 -47 15 -156 -1 -185 -28 -12 -11 -42 -30 -67 -43 -26 -13 -59 -36 -74 -51 -14 -15 -45 -34 -67 -43 -21 -9 -49 -26 -60 -38 -33 -35 -49 -46 -74 -51 -50 -9 -78 -27 -147 -93 -53 -52 -71 -76 -71 -96 0 -17 5 -27 15 -27 8 0 15 -4 15 -10 0 -5 -7 -10 -15 -10 -18 0 -19 -12 -3 -28 9 -9 8 -16 -4 -29 -19 -22 -27 -67 -37 -206 -5 -77 -12 -109 -24 -122 -9 -9 -17 -23 -17 -32 0 -8 -8 -27 -18 -41 -11 -15 -29 -48 -42 -74 -13 -27 -27 -48 -32 -48 -13 0 -9 -38 5 -43 9 -4 9 -8 -2 -15 -17 -12 -19 -74 -3 -80 7 -2 12 -9 12 -16 0 -8 10 -26 22 -41 l22 -28 103 6 c95 5 106 4 121 -14 9 -10 26 -19 39 -19 12 0 28 -7 37 -15 19 -19 149 -21 173 -2 43 34 84 81 89 105 3 15 13 46 20 70 11 33 14 100 12 288 -2 170 1 247 9 252 6 4 19 25 29 47 l19 40 164 2 163 3 27 -28 c42 -45 58 -46 65 -6 7 33 9 34 49 33 23 -1 54 -4 68 -8 l26 -6 -23 -79 c-13 -44 -24 -83 -24 -86 0 -4 15 -14 33 -24 76 -41 87 -48 87 -56 0 -17 69 -50 106 -50 59 -1 117 -17 131 -37 31 -46 33 -46 126 -40 53 4 93 11 98 18 9 16 85 28 179 28 95 1 245 49 295 94 11 10 32 25 46 32 15 8 42 38 60 67 19 29 37 55 41 56 5 2 8 14 8 27 0 39 11 55 46 70 19 8 59 41 91 74 31 34 62 61 69 61 6 0 30 19 53 43 78 80 234 95 328 31 20 -13 44 -24 54 -24 9 0 19 -3 21 -7 2 -5 32 -23 68 -40 82 -41 123 -65 132 -78 4 -5 33 -9 65 -10 54 0 61 3 93 36 60 61 80 88 80 109 0 31 -21 24 -61 -20 -33 -36 -41 -40 -86 -40 -28 0 -65 5 -84 11 -38 13 -99 71 -99 94 0 10 -10 15 -30 15 -20 0 -39 9 -54 25 -23 25 -107 76 -158 96 -16 6 -28 14 -28 19 0 4 -13 13 -30 20 -24 10 -43 10 -95 0 -36 -7 -65 -16 -65 -20 0 -4 -11 -11 -25 -14 -13 -3 -29 -15 -35 -26 -10 -18 -21 -20 -130 -20 -108 0 -122 -2 -137 -20 -10 -11 -25 -20 -35 -20 -10 0 -18 -4 -18 -10 0 -5 -15 -10 -34 -10 -27 0 -35 -5 -40 -24 -3 -13 -21 -34 -40 -46 -19 -11 -36 -24 -38 -28 -6 -15 -104 -69 -153 -85 -38 -13 -82 -17 -179 -15 -125 1 -129 2 -169 32 l-42 30 50 15 c28 8 52 18 55 21 11 12 90 60 99 60 5 0 30 26 57 58 27 31 54 62 61 67 19 17 60 126 73 198 15 83 7 177 -25 272 -13 38 -21 72 -19 75 3 2 148 6 322 8 299 3 372 9 372 33 0 4 18 13 39 19 29 8 46 20 63 48 21 33 23 48 22 152 -2 145 -23 211 -87 263 -23 18 -53 40 -67 47 -14 7 -27 16 -30 19 -14 18 -207 101 -234 101 -9 0 -16 4 -16 9 0 5 -12 14 -27 20 -26 10 -26 11 -3 7 14 -3 49 -8 78 -12 28 -3 52 -12 52 -18 0 -6 5 -4 10 4 5 8 10 45 10 83 0 38 4 67 10 67 6 0 10 7 10 15 0 19 -105 122 -132 131 -22 7 -14 24 12 24 10 0 20 4 22 8 2 5 36 26 75 47 62 32 76 44 95 84 13 25 26 48 29 51 11 10 29 124 29 185 0 68 -18 175 -30 175 -4 0 -10 13 -13 29 -12 59 -61 143 -124 211 -36 38 -71 70 -78 70 -7 0 -23 11 -36 25 -13 14 -60 39 -104 56 -74 30 -91 32 -215 35 -82 2 -153 -2 -180 -9z"/>
</g>
<g id="layer104" fill="#cf4356" stroke="none">
<path d="M2271 3571 c-13 -50 -28 -91 -32 -91 -17 0 -9 -29 14 -52 12 -13 41 -45 64 -71 l41 -47 -126 5 c-70 3 -175 7 -234 10 -94 4 -116 1 -185 -20 -43 -14 -94 -30 -114 -35 -24 -7 -47 -24 -65 -47 -16 -21 -37 -46 -47 -56 -34 -34 -57 -119 -57 -210 0 -112 22 -172 88 -238 66 -66 122 -95 197 -103 137 -15 222 -34 229 -52 2 -6 -13 -26 -34 -43 -22 -17 -46 -46 -55 -64 -8 -17 -26 -44 -38 -59 -37 -43 -61 -160 -54 -266 3 -48 9 -99 13 -114 6 -25 4 -28 -21 -28 -35 0 -105 21 -105 31 0 4 -16 13 -35 19 -47 15 -156 -1 -185 -28 -12 -11 -42 -30 -67 -43 -26 -13 -59 -36 -74 -51 -14 -15 -45 -34 -67 -43 -21 -9 -49 -26 -60 -38 -33 -35 -49 -46 -74 -51 -50 -9 -78 -27 -147 -93 -53 -52 -71 -76 -71 -96 0 -17 5 -27 15 -27 8 0 15 -4 15 -10 0 -5 -7 -10 -15 -10 -18 0 -19 -12 -3 -28 9 -9 8 -16 -4 -29 -19 -22 -27 -67 -37 -206 -5 -77 -12 -109 -24 -122 -9 -9 -17 -23 -17 -32 0 -8 -8 -27 -18 -41 -11 -15 -29 -48 -42 -74 -13 -27 -27 -48 -32 -48 -13 0 -9 -38 5 -43 9 -4 9 -8 -2 -15 -17 -12 -19 -74 -3 -80 7 -2 12 -9 12 -16 0 -8 10 -26 22 -41 l22 -28 103 6 c95 5 106 4 121 -14 9 -10 26 -19 39 -19 12 0 28 -7 37 -15 19 -19 149 -21 173 -2 43 34 84 81 89 105 3 15 13 46 20 70 11 33 14 100 12 288 -2 170 1 247 9 252 6 4 19 25 29 47 l19 40 164 2 163 3 27 -28 c42 -45 58 -46 65 -6 7 33 9 34 49 33 23 -1 54 -4 68 -8 l26 -6 -23 -79 c-13 -44 -24 -83 -24 -86 0 -4 15 -14 33 -24 76 -41 87 -48 87 -56 0 -17 69 -50 106 -50 59 -1 117 -17 131 -37 31 -46 33 -46 126 -40 53 4 93 11 98 18 9 16 85 28 179 28 95 1 245 49 295 94 11 10 32 25 46 32 15 8 42 38 60 67 19 29 37 55 41 56 5 2 8 14 8 27 0 39 11 55 46 70 19 8 59 41 91 74 31 34 62 61 69 61 6 0 30 19 53 43 78 80 234 95 328 31 20 -13 44 -24 54 -24 9 0 19 -3 21 -7 2 -5 32 -23 68 -40 82 -41 123 -65 132 -78 4 -5 33 -9 65 -10 54 0 61 3 93 36 60 61 80 88 80 109 0 31 -21 24 -61 -20 -33 -36 -41 -40 -86 -40 -28 0 -65 5 -84 11 -38 13 -99 71 -99 94 0 10 -10 15 -30 15 -20 0 -39 9 -54 25 -23 25 -107 76 -158 96 -16 6 -28 14 -28 19 0 4 -13 13 -30 20 -24 10 -43 10 -95 0 -36 -7 -65 -16 -65 -20 0 -4 -11 -11 -25 -14 -13 -3 -29 -15 -35 -26 -10 -18 -21 -20 -130 -20 -108 0 -122 -2 -137 -20 -10 -11 -25 -20 -35 -20 -10 0 -18 -4 -18 -10 0 -5 -15 -10 -34 -10 -27 0 -35 -5 -40 -24 -3 -13 -21 -34 -40 -46 -19 -11 -36 -24 -38 -28 -6 -15 -104 -69 -153 -85 -38 -13 -82 -17 -179 -15 -125 1 -129 2 -169 32 l-42 30 50 15 c28 8 52 18 55 21 11 12 90 60 99 60 5 0 30 26 57 58 27 31 54 62 61 67 19 17 60 126 73 198 15 83 7 177 -25 272 -13 38 -21 72 -19 75 3 2 148 6 322 8 299 3 372 9 372 33 0 4 18 13 39 19 29 8 46 20 63 48 21 33 23 48 22 152 -2 145 -23 211 -87 263 -23 18 -53 40 -67 47 -14 7 -27 16 -30 19 -14 18 -207 101 -234 101 -9 0 -16 4 -16 9 0 5 -12 14 -27 20 -26 10 -26 11 -3 7 14 -3 49 -8 78 -12 28 -3 52 -12 52 -18 0 -6 5 -4 10 4 5 8 10 45 10 83 0 38 4 67 10 67 38 0 -42 96 -121 146 -22 13 -39 28 -39 33 0 5 -28 29 -62 55 -35 25 -69 54 -75 65 -30 47 -82 57 -358 70 -143 7 -289 15 -325 18 l-66 5 -23 -91z"/>
</g>
<g id="layer105" fill="#e3b019" stroke="none">
<path d="M1845 3315 c-22 -8 -72 -23 -112 -35 -58 -18 -77 -28 -100 -58 -15 -20 -36 -45 -46 -55 -34 -34 -57 -119 -57 -210 0 -112 22 -172 88 -238 66 -66 122 -95 197 -103 137 -15 222 -34 229 -52 2 -6 -13 -26 -34 -43 -22 -17 -46 -46 -55 -64 -8 -17 -26 -44 -38 -59 -37 -43 -61 -160 -54 -266 3 -48 9 -99 13 -114 6 -25 4 -28 -21 -28 -35 0 -105 21 -105 31 0 4 -16 13 -35 19 -47 15 -156 -1 -185 -28 -12 -11 -42 -30 -67 -43 -26 -13 -59 -36 -74 -51 -14 -15 -45 -34 -67 -43 -21 -9 -49 -26 -60 -38 -33 -35 -49 -46 -74 -51 -50 -9 -78 -27 -147 -93 -53 -52 -71 -76 -71 -96 0 -17 5 -27 15 -27 8 0 15 -4 15 -10 0 -5 -7 -10 -15 -10 -18 0 -19 -12 -3 -28 9 -9 8 -16 -4 -29 -19 -22 -27 -67 -37 -206 -5 -77 -12 -109 -24 -122 -9 -9 -17 -23 -17 -32 0 -8 -8 -27 -18 -41 -11 -15 -29 -48 -42 -75 -13 -26 -27 -47 -32 -47 -13 0 -9 -38 5 -43 9 -4 9 -8 -2 -15 -17 -12 -19 -74 -3 -80 7 -2 12 -9 12 -16 0 -8 10 -26 22 -41 l22 -28 103 6 c95 5 106 4 121 -14 9 -10 26 -19 39 -19 12 0 28 -7 37 -15 19 -19 149 -21 173 -3 43 35 84 82 89 106 3 15 13 46 20 70 11 33 14 100 12 288 -2 170 1 247 9 252 6 4 19 25 29 47 l19 40 164 2 163 3 27 -28 c42 -45 58 -46 65 -6 7 33 9 34 49 33 23 -1 54 -4 68 -8 l26 -6 -23 -79 c-13 -44 -24 -83 -24 -86 0 -4 15 -14 33 -24 76 -41 87 -48 87 -56 0 -17 69 -50 106 -50 59 -1 117 -17 131 -37 31 -46 33 -46 126 -40 53 4 93 11 98 18 9 16 85 28 179 28 95 1 245 49 295 94 11 10 32 25 46 32 15 8 42 38 60 67 19 29 37 55 41 56 5 2 8 14 8 27 0 39 11 55 46 70 19 8 59 41 91 74 31 34 62 61 69 61 6 0 30 19 53 43 78 80 234 95 328 31 20 -13 44 -24 54 -24 9 0 19 -3 21 -7 2 -5 32 -23 68 -40 82 -41 123 -65 132 -78 4 -5 33 -9 65 -10 54 0 61 3 93 36 60 61 80 88 80 109 0 31 -21 24 -61 -20 -33 -36 -41 -40 -86 -40 -28 0 -65 5 -84 11 -38 13 -99 71 -99 94 0 10 -10 15 -30 15 -20 0 -39 9 -54 25 -23 25 -107 76 -158 96 -16 6 -28 14 -28 19 0 4 -13 13 -30 20 -24 10 -43 10 -95 0 -36 -7 -65 -16 -65 -20 0 -4 -11 -11 -25 -14 -13 -3 -29 -15 -35 -26 -10 -18 -21 -20 -130 -20 -108 0 -122 -2 -137 -20 -10 -11 -25 -20 -35 -20 -10 0 -18 -4 -18 -10 0 -5 -15 -10 -34 -10 -27 0 -35 -5 -40 -24 -3 -13 -21 -34 -40 -46 -19 -11 -36 -24 -38 -28 -6 -15 -104 -69 -153 -85 -38 -13 -82 -17 -179 -15 -125 1 -129 2 -169 32 l-42 30 50 15 c28 8 52 18 55 21 11 12 90 60 99 60 5 0 30 26 57 58 27 31 54 62 61 67 19 17 60 126 73 198 15 83 7 177 -25 272 -13 38 -21 72 -19 75 3 2 148 6 322 8 299 3 372 9 372 33 0 4 18 13 39 19 29 8 46 20 63 48 21 33 23 48 22 152 -2 145 -23 211 -87 263 -23 18 -53 40 -67 47 -14 7 -27 16 -30 19 -14 18 -207 101 -234 101 -9 0 -16 4 -16 10 0 11 -125 51 -259 81 -53 12 -98 25 -101 29 -6 8 -143 34 -285 55 -241 34 -654 51 -720 30z"/>
</g>
<g id="layer106" fill="#98c17f" stroke="none">
<path d="M1845 3315 c-22 -8 -72 -23 -112 -35 -58 -18 -77 -28 -100 -58 -15 -20 -36 -45 -46 -55 -34 -34 -57 -119 -57 -210 0 -112 22 -172 88 -238 66 -66 122 -95 197 -103 137 -15 222 -34 229 -52 2 -6 -13 -26 -34 -43 -22 -17 -46 -46 -55 -65 -9 -18 -25 -43 -37 -56 -49 -52 -73 -249 -45 -369 11 -43 20 -58 52 -82 21 -16 45 -29 52 -29 7 0 13 -4 13 -10 0 -5 8 -10 19 -10 10 0 42 -16 71 -36 38 -26 69 -38 112 -44 33 -5 65 -15 71 -23 7 -8 32 -25 57 -40 25 -14 56 -36 70 -49 41 -38 92 -51 142 -36 24 6 45 15 48 18 10 11 90 60 99 60 5 0 30 26 57 58 27 31 54 62 61 67 19 17 60 126 73 198 15 83 7 177 -25 272 -13 38 -21 72 -19 75 3 2 148 6 322 8 299 3 372 9 372 33 0 4 18 13 39 19 29 8 46 20 63 48 21 33 23 48 22 152 -2 145 -23 211 -87 263 -23 18 -53 40 -67 47 -14 7 -27 16 -30 19 -14 18 -207 101 -234 101 -9 0 -16 4 -16 10 0 11 -125 51 -259 81 -53 12 -98 25 -101 29 -6 8 -143 34 -285 55 -241 34 -654 51 -720 30z"/>
</g>
<g id="layer107" fill="#ffffff" stroke="none">
<path d="M2255 2655 c-33 -7 -85 -25 -115 -38 -59 -27 -168 -124 -190 -169 -7 -15 -22 -37 -33 -49 -48 -51 -71 -249 -44 -368 11 -43 20 -58 52 -82 21 -16 45 -29 52 -29 7 0 13 -4 13 -10 0 -5 8 -10 19 -10 10 0 42 -16 71 -36 38 -26 69 -38 112 -44 33 -5 65 -15 71 -23 7 -8 32 -25 57 -40 25 -14 56 -36 70 -49 41 -38 92 -51 142 -36 24 6 45 15 48 18 10 11 90 60 99 60 5 0 30 26 57 58 27 31 54 62 61 67 19 17 60 126 73 198 24 133 -12 292 -88 390 -17 21 -84 89 -112 112 -89 74 -282 111 -415 80z"/>
</g>


</svg>